# xmcd
#
# Track frame offsets:
#	150
#	24667
#	39975
#	59802
#	71997
#	88097
#	108387
#	130235
#	147877
#	166327
#	186220
#	203067
#	225737
#	248510
#	265345
#	281777
#
# Disc length: 4055 seconds
#
# Revision: 1
# Processed by: cddbd v1.5.2PL0 Copyright (c) Steve Scherf et al.
# Submitted via: audiograbber 1.83.01
#
DISCID=f00fd510
DTITLE=Wolfgang Ambros - Hoffnungslos selbstbewusst (Live)
DYEAR=2002
DGENRE=AustroPop
TTITLE0=Espresso (Live 2001/2002)
TTITLE1=Langsam wochs ma z'amm (Live 2001/2002)
TTITLE2=Komm her zu mir (Live 2001/2002)
TTITLE3=Ohne jede Warnung (Live 2001/2002)
TTITLE4=Die Blume aus dem Gemeindebau (Live 2001/2002)
TTITLE5=Romeo verliert Bluat (Live 2001/2002)
TTITLE6=Warum host des g'mocht (Live 2001/2002)
TTITLE7=Ruaf mi net an (Live 2001/2002)
TTITLE8=I bin miad (Live 2001/2002)
TTITLE9=Du schwarzer Afghane (Live 2001/2002)
TTITLE10=Mein seltsamer Beruf (Live 2001/2002)
TTITLE11=A g'fäuda Tog (Live 2001/2002)
TTITLE12=Kaputt und munter (Live 2001/2002)
TTITLE13=A so a Nocht (Live 2001/2002)
TTITLE14=Die Freiheit (Live 2001/2002)
TTITLE15=Gut und schön (Live 2001/2002)
EXTD=
EXTT0=
EXTT1=
EXTT2=
EXTT3=
EXTT4=
EXTT5=
EXTT6=
EXTT7=
EXTT8=
EXTT9=
EXTT10=
EXTT11=
EXTT12=
EXTT13=
EXTT14=
EXTT15=
PLAYORDER=
